<svg xmlns="http://www.w3.org/2000/svg" viewBox="0 0 64 64">
 <path d="m 7.816 10.676 c -3.94 4.521 -6.14 11.288 -5.459 20.514 0.181 1.711 1.949 13.991 2.961 18.11 0.827 3.281 1.88 6.382 3.33 8.863 1.45 2.481 3.368 4.424 5.926 4.959 l 0.203 0.025 c 0.579 0.025 1.155 0.023 1.686 0.02 0.531 -0.002 1.039 -0.16 1.695 -0.385 0.651 -0.222 1.406 -0.527 1.92 -0.748 0.514 -0.221 0.734 -0.335 0.901 -0.413 0.167 -0.078 0.323 -0.159 0.463 -0.227 0.958 -0.463 2 -1 3.139 -1.613 0.03 -0.016 0.059 -0.03 0.09 -0.047 0.004 -0.002 0.009 -0.005 0.014 -0.008 5.818 -3.15 13.629 -8.03 20.684 -12.816 4.486 -3.044 8.635 -6.03 11.713 -8.486 1.539 -1.227 2.808 -2.317 3.74 -3.244 0.466 -0.464 0.849 -0.884 1.15 -1.293 0.302 -0.409 0.568 -0.769 0.637 -1.41 0.82 -7.714 0.822 -13.181 0.176 -17.15 L 62.777 15.279 62.765 15.232 C 62.718 15.04 62.21 12.981 60.949 10.869 59.686 8.757 57.5 6.443 54.23 6.443 49.812 6.443 45.941 7.677 42.578 9.742 36.906 5.519 30.382 3.426 23.21 3.545 17.351 3.955 11.757 6.154 7.816 10.676 m 31.16 -0.367 -8.35 -1.287 0.096 1.258 0.141 1.84 -0.898 -0.139 -0.057 -0.732 -6.818 -1.152 -0.27 0.814 -0.059 0.176 -1.723 0.049 -4.178 2.264 -1.381 -0.986 -2.316 2.873 -0.004 -0.006 -1.746 1.082 -2.23 2.539 -1.611 2.732 -2.781 4.193 C 5.144 19.821 6.992 15.427 9.701 12.318 13.13 8.386 18.01 6.424 23.311 6.04 29.06 5.956 34.27 7.375 38.978 10.309 M 54.23 8.941 c 2.092 0 3.532 1.47 4.572 3.209 1.029 1.721 1.488 3.524 1.516 3.635 0.576 3.584 0.608 8.819 -0.184 16.32 -0.064 0.119 -0.061 0.13 -0.175 0.295 -0.173 0.252 -0.493 0.598 -0.902 1.01 -0.819 0.815 -2.038 1.869 -3.535 3.063 -2.994 2.388 -7.109 5.35 -11.559 8.369 -7.359 4.993 -15.09 9.665 -20.787 12.689 0.206 -0.494 0.405 -1.045 0.602 -1.613 0.028 -0.082 0.06 -0.149 0.088 -0.232 0.002 -0.005 0.004 -0.012 0.006 -0.018 0.227 -0.676 0.447 -1.412 0.658 -2.205 0.006 -0.024 0.013 -0.043 0.02 -0.066 l 0 -0.002 c 0.158 -0.598 0.304 -1.27 0.451 -1.941 0.059 -0.268 0.125 -0.5 0.182 -0.781 0.001 -0.004 0.001 -0.008 0.002 -0.012 0.194 -0.962 0.377 -1.998 0.547 -3.117 C 26.843 40.19 29.416 30.388 34.02 22.555 38.62 14.721 45.07 8.941 54.23 8.941 m -21.412 2.441 5.326 0.82 -0.521 1.092 -4.602 0.746 z m -8.363 0.971 3.584 0.605 0.227 2.961 -4.828 -0.496 z m -2.355 0.752 -1.342 4.053 0.816 0.084 -0.23 0.561 -0.969 2.332 -0.346 -4.479 -1.352 -0.965 2.902 -1.572 z m 8.03 0.924 0.898 0.141 0.166 2.193 4.676 -0.758 c -1.485 1.747 -2.819 3.664 -4.01 5.684 -0.663 1.129 -1.282 2.294 -1.863 3.479 l -0.607 -1.734 1.641 -4.086 -7.287 -1.482 6.699 0.689 z m -14.268 1.107 2.248 1.605 0.172 2.238 -4.568 2.111 -0.23 -3 z m -4.299 4.096 0.375 4.885 8.398 -3.885 -1.193 2.871 3.973 0.617 -4.512 3.285 -4.436 -3.546 -7.877 6.197 0.982 0.787 L 9.297 32.06 8.818 33.18 6.791 32.793 5.205 30.574 5.104 29.414 5.682 28.11 9.273 22.695 10.818 20.08 m 12.05 -0.75 5.406 1.1 -0.781 1.947 -5.533 -0.859 z m 3.043 4.824 1.848 0.287 0.826 2.355 -3.955 2.746 -3 -2.27 z m -11.755 1.856 2.641 2.12 -4.895 3.46 -2.394 -1.92 m 10.328 -1.246 4.748 3.588 3.26 -2.264 c -0.218 0.562 -0.442 1.121 -0.645 1.686 l -4.434 2.881 -3.207 -1.295 0.211 -0.385 -4.344 -1.09 z m -6.561 4.643 3.498 0.879 -2.623 4.799 -4.797 -1.73 1.563 -3.65 0.91 0.729 z m -8.03 1.01 0.025 0.037 -0.021 0 C 5.247 34.1 5.247 34.09 5.245 34.08 m 20.92 0.412 c -0.426 1.364 -0.794 2.713 -1.137 4.047 l -0.528 0.604 0.299 0.338 c -0.076 0.309 -0.155 0.62 -0.227 0.926 l -1.59 -1.807 0.563 -0.639 -1.607 -1.822 1.045 0.422 z M 5.975 34.672 8.01 35.06 7.469 36.34 5.973 35.443 m 12.621 -0.658 1.416 0.572 -0.018 0.02 -2.273 2.582 0.561 0.635 -1.332 -0.799 z M 5.641 36.994 6.871 37.73 6.682 38.17 6.725 38.19 6.704 38.24 7.02 38.429 6.936 38.62 6.62 38.429 6.03 39.745 C 5.881 38.783 5.763 37.902 5.641 36.994 m 2.846 1.832 4.512 1.627 -0.129 0.287 -1.016 2.256 1.658 0.992 -0.086 0.191 -0.979 2.168 -1.326 -0.797 1.051 -2.338 -2.574 -1.549 0.391 -0.865 -1.881 -1.129 z m 10.762 0.867 1.383 1.57 0.105 -0.119 2.141 2.443 1.322 -1.51 c -0.019 0.091 -0.038 0.179 -0.057 0.27 l -1.678 1.914 1.078 1.219 c -0.026 0.151 -0.051 0.302 -0.076 0.451 l -0.021 -0.004 -0.094 0.623 -0.5 -0.57 0.025 -0.029 -2.029 -2.311 0.191 -0.219 -2.242 -2.561 -0.156 0.178 z m -3.936 1.092 2.328 1.395 -1.088 1.242 2.031 2.307 -0.197 0.223 1.639 1.854 -0.027 0.031 2.24 2.553 0.576 -0.656 -0.354 1.646 -1.516 -1.729 -0.639 0.729 -1.604 1.832 2.242 2.549 0.92 -1.043 c -0.023 0.079 -0.045 0.173 -0.068 0.25 -0.208 0.695 -0.42 1.308 -0.635 1.877 l -2.078 -2.34 -0.635 0.723 -0.17 0.193 -2.262 -1.352 0.885 -1.957 0.383 0.434 2.91 -3.303 -2.91 -3.322 -0.639 0.729 -0.453 0.518 0.51 -1.127 -1.662 -0.998 1.105 -2.441 -0.963 -0.578 z M 7.915 44.539 7.884 44.609 9.911 45.826 9.874 45.91 8.718 48.47 7.495 47.614 C 7.365 47.06 7.237 46.51 7.119 45.943 m 6.844 1.418 0.775 0.467 -0.363 0.414 1.717 1.949 -1.92 -1.152 -0.393 0.871 -1.016 2.254 2.365 1.418 -0.021 0.047 -1.016 2.25 2.881 1.73 0.422 -0.936 1.689 1.936 1.775 -2.01 c -0.558 1.328 -1.118 2.275 -1.631 2.924 l -1.305 0.336 -2.693 -3.064 -1.025 2.266 -3.182 -1.908 0.213 -0.473 0.986 0.592 1.41 -3.119 -2.887 -1.732 -0.393 0.871 -0.5 1.109 -0.33 -0.197 C 9.271 53.593 9.03 52.958 8.806 52.29 l 0.979 -2.176 -0.9 -0.543 0.068 -0.152 3.209 1.92 z"/>
</svg>
