<svg xmlns="http://www.w3.org/2000/svg" viewBox="0 0 64 64">
 <path d="m23.24 3.543l-.068.004C17.351 3.955 11.757 6.154 7.816 10.676 3.876 15.197 1.676 21.964 2.357 31.19c.181 1.711 1.949 13.991 2.961 18.11.827 3.281 1.88 6.382 3.33 8.863 1.45 2.481 3.368 4.424 5.926 4.959l.203.025c.579.025 1.155.023 1.59.027h.029c.598-.009 1.106-.167 1.762-.391.651-.222 1.406-.527 2.248-.9l.008.012c.178-.081.398-.195.584-.283.004-.002.008-.004.012-.006v.002c.136-.064.292-.145.432-.213.958-.463 2-1 3.139-1.613.03-.016.059-.03.09-.047.004-.002.009-.005.014-.008 5.818-3.15 13.629-8.03 20.684-12.816 4.486-3.044 8.635-6.03 11.713-8.486 1.539-1.227 2.808-2.317 3.74-3.244.466-.464.849-.884 1.15-1.293.302-.409.568-.769.637-1.41.82-7.714.822-13.181.176-17.15l-.008-.049-.012-.047c-.047-.192-.553-2.251-1.816-4.363-1.263-2.112-3.448-4.426-6.717-4.426-4.42 0-8.291 1.234-11.654 3.299C36.906 5.519 30.382 3.426 23.24 3.543m.068 2.502c5.75-.089 10.962 1.33 15.67 4.264l-8.35-1.287.096 1.258.141 1.84-.898-.139-.057-.732-6.818-1.152-.27.814-.059.176-1.723.049-4.178 2.264-1.381-.986-2.316 2.873-.004-.006-1.746 1.082-2.23 2.539-1.611 2.732-2.781 4.193C5.144 19.821 6.992 15.427 9.701 12.318 13.13 8.386 18.01 6.424 23.313 6.04M54.23 8.941c2.092 0 3.532 1.47 4.572 3.209 1.029 1.721 1.488 3.524 1.516 3.635.579 3.601.608 8.867-.195 16.424.025-.233.018-.055-.164.191-.182.246-.493.598-.902 1.01-.819.815-2.038 1.869-3.535 3.063-2.994 2.388-7.109 5.35-11.559 8.369-7.359 4.993-15.09 9.665-20.787 12.689.206-.494.405-1.045.602-1.613.028-.082.06-.149.088-.232.002-.005.004-.012.006-.018.227-.676.447-1.412.658-2.205.006-.024.013-.043.02-.066 0-.001 0-.001 0-.002.158-.598.304-1.27.451-1.941.059-.268.125-.5.182-.781.001-.004.001-.008.002-.012.194-.962.377-1.998.547-3.117C26.843 40.19 29.416 30.388 34.02 22.555 38.62 14.721 45.07 8.941 54.23 8.941m-21.412 2.441l5.326.82-.521 1.092-4.602.746zm-8.363.971l3.584.605.227 2.961-4.828-.496zm-2.355.752l-1.342 4.053.816.084-.23.561-.969 2.332-.346-4.479-1.352-.965 2.902-1.572zm8.03.924l.898.141.166 2.193 4.676-.758c-1.485 1.747-2.819 3.664-4.01 5.684-.663 1.129-1.282 2.294-1.863 3.479l-.607-1.734 1.641-4.086-7.287-1.482 6.699.689zm-14.268 1.107l2.248 1.605.172 2.238-4.568 2.111-.23-3zm-4.299 4.096l.375 4.885 8.398-3.885-1.193 2.871 3.973.617-4.512 3.285L14.168 23.459 6.291 29.656 7.273 30.443 9.297 32.06 8.818 33.18 6.791 32.793 5.205 30.574 5.104 29.414 5.682 28.11 9.273 22.695 10.818 20.08m12.05-.75l5.406 1.1-.781 1.947-5.533-.859zm3.043 4.824l1.848.287.826 2.355-3.955 2.746-3-2.27zM14.156 26.01L16.797 28.13 11.902 31.59 9.508 29.67m10.328-1.246l4.748 3.588 3.26-2.264c-.218.562-.442 1.121-.645 1.686l-4.434 2.881-3.207-1.295.211-.385-4.344-1.09zm-6.561 4.643l3.498.879-2.623 4.799-4.797-1.73 1.563-3.65.91.729zm-8.03 1.01l.025.037h-.021c-.002-.013-.002-.024-.004-.037m20.92.412c-.426 1.364-.794 2.713-1.137 4.047L24.5 39.14l.299.338c-.076.309-.155.62-.227.926l-1.59-1.807.563-.639-1.607-1.822 1.045.422zM5.975 34.672L8.01 35.06 7.469 36.34 5.973 35.443m12.621-.658l1.416.572-.018.02-2.273 2.582.561.635-1.332-.799zm-12.953 2.209l1.23.736-.189.445.043.016-.021.049.318.189-.086.191-.316-.191-.594 1.316C5.881 38.783 5.763 37.902 5.641 36.994m2.846 1.832l4.512 1.627-.129.287-1.016 2.256 1.658.992-.086.191-.979 2.168-1.326-.797 1.051-2.338-2.574-1.549.391-.865-1.881-1.129zm10.762.867l1.383 1.57.105-.119 2.141 2.443 1.322-1.51c-.019.091-.038.179-.057.27l-1.678 1.914 1.078 1.219c-.026.151-.051.302-.076.451l-.021-.004-.094.623-.5-.57.025-.029-2.029-2.311.191-.219-2.242-2.561-.156.178zm-3.936 1.092l2.328 1.395-1.088 1.242 2.031 2.307-.197.223 1.639 1.854-.027.031 2.24 2.553.576-.656-.354 1.646-1.516-1.729-.639.729-1.604 1.832 2.242 2.549.92-1.043c-.023.079-.045.173-.068.25-.208.695-.42 1.308-.635 1.877l-2.078-2.34-.635.723-.17.193-2.262-1.352.885-1.957.383.434 2.91-3.303-2.91-3.322-.639.729-.453.518.51-1.127-1.662-.998 1.105-2.441-.963-.578zm-7.398 3.754l-.031.07 2.027 1.217-.037.084-1.156 2.563-1.223-.859C7.365 47.06 7.237 46.51 7.119 45.943m6.844 1.418l.775.467-.363.414 1.717 1.949-1.92-1.152-.393.871-1.016 2.254 2.365 1.418-.021.047-1.016 2.25 2.881 1.73.422-.936 1.689 1.936 1.775-2.01c-.558 1.328-1.118 2.275-1.631 2.924l-1.305.336-2.693-3.064-1.025 2.266-3.182-1.908.213-.473.986.592 1.41-3.119-2.887-1.732-.393.871-.5 1.109-.33-.197c-.25-.611-.489-1.246-.715-1.912l.979-2.176-.9-.543.068-.152 3.209 1.92z" color="#000"/>
</svg>
